<mxfile host="app.diagrams.net" modified="2023-03-28T01:31:11.446Z" agent="Mozilla/5.0 (Windows NT 10.0; Win64; x64) AppleWebKit/537.36 (KHTML, like Gecko) Chrome/111.0.0.0 Safari/537.36" etag="mZEWWhM16YTOdryzs5xz" version="21.1.1" type="github">
  <diagram name="Página-1" id="TyhCOs6SWgqlXhVfGcFw">
    <mxGraphModel dx="989" dy="1718" grid="1" gridSize="10" guides="1" tooltips="1" connect="1" arrows="1" fold="1" page="1" pageScale="1" pageWidth="827" pageHeight="1169" math="0" shadow="0">
      <root>
        <mxCell id="0" />
        <mxCell id="1" parent="0" />
        <object label="Cliente" Nome="awdwadwad" id="nnb560z1bwkHBEcQoxyW-22">
          <mxCell style="whiteSpace=wrap;html=1;align=center;" vertex="1" parent="1">
            <mxGeometry x="320" y="60" width="100" height="40" as="geometry" />
          </mxCell>
        </object>
        <mxCell id="nnb560z1bwkHBEcQoxyW-23" value="Pedido" style="whiteSpace=wrap;html=1;align=center;" vertex="1" parent="1">
          <mxGeometry x="320" y="240" width="100" height="40" as="geometry" />
        </mxCell>
        <mxCell id="nnb560z1bwkHBEcQoxyW-27" value="Produto" style="whiteSpace=wrap;html=1;align=center;" vertex="1" parent="1">
          <mxGeometry x="320" y="440" width="100" height="40" as="geometry" />
        </mxCell>
        <mxCell id="nnb560z1bwkHBEcQoxyW-30" value="Faz" style="shape=rhombus;perimeter=rhombusPerimeter;whiteSpace=wrap;html=1;align=center;" vertex="1" parent="1">
          <mxGeometry x="340" y="140" width="60" height="60" as="geometry" />
        </mxCell>
        <mxCell id="nnb560z1bwkHBEcQoxyW-38" value="Contém" style="shape=rhombus;perimeter=rhombusPerimeter;whiteSpace=wrap;html=1;align=center;" vertex="1" parent="1">
          <mxGeometry x="340" y="330" width="60" height="60" as="geometry" />
        </mxCell>
        <mxCell id="nnb560z1bwkHBEcQoxyW-50" value="" style="endArrow=none;html=1;rounded=0;entryX=0.5;entryY=0;entryDx=0;entryDy=0;exitX=0.5;exitY=1;exitDx=0;exitDy=0;" edge="1" parent="1" source="nnb560z1bwkHBEcQoxyW-22" target="nnb560z1bwkHBEcQoxyW-30">
          <mxGeometry relative="1" as="geometry">
            <mxPoint x="420" y="139.31" as="sourcePoint" />
            <mxPoint x="580" y="139.31" as="targetPoint" />
          </mxGeometry>
        </mxCell>
        <mxCell id="nnb560z1bwkHBEcQoxyW-51" value="" style="endArrow=none;html=1;rounded=0;entryX=0.5;entryY=1;entryDx=0;entryDy=0;exitX=0.5;exitY=0;exitDx=0;exitDy=0;" edge="1" parent="1" source="nnb560z1bwkHBEcQoxyW-23" target="nnb560z1bwkHBEcQoxyW-30">
          <mxGeometry relative="1" as="geometry">
            <mxPoint x="420" y="230" as="sourcePoint" />
            <mxPoint x="580" y="230" as="targetPoint" />
          </mxGeometry>
        </mxCell>
        <mxCell id="nnb560z1bwkHBEcQoxyW-52" value="" style="endArrow=none;html=1;rounded=0;exitX=0.5;exitY=1;exitDx=0;exitDy=0;entryX=0.5;entryY=0;entryDx=0;entryDy=0;" edge="1" parent="1" source="nnb560z1bwkHBEcQoxyW-23" target="nnb560z1bwkHBEcQoxyW-38">
          <mxGeometry relative="1" as="geometry">
            <mxPoint x="420" y="280" as="sourcePoint" />
            <mxPoint x="458" y="245" as="targetPoint" />
          </mxGeometry>
        </mxCell>
        <mxCell id="nnb560z1bwkHBEcQoxyW-53" value="" style="endArrow=none;html=1;rounded=0;exitX=0.5;exitY=0;exitDx=0;exitDy=0;entryX=0.5;entryY=1;entryDx=0;entryDy=0;" edge="1" parent="1" source="nnb560z1bwkHBEcQoxyW-27" target="nnb560z1bwkHBEcQoxyW-38">
          <mxGeometry relative="1" as="geometry">
            <mxPoint x="420" y="350" as="sourcePoint" />
            <mxPoint x="458" y="385" as="targetPoint" />
          </mxGeometry>
        </mxCell>
        <mxCell id="nnb560z1bwkHBEcQoxyW-54" value="" style="endArrow=none;html=1;rounded=0;exitX=1;exitY=0;exitDx=0;exitDy=0;entryX=0.5;entryY=0;entryDx=0;entryDy=0;" edge="1" parent="1" target="nnb560z1bwkHBEcQoxyW-96">
          <mxGeometry relative="1" as="geometry">
            <mxPoint x="367" y="480" as="sourcePoint" />
            <mxPoint x="405" y="515" as="targetPoint" />
          </mxGeometry>
        </mxCell>
        <mxCell id="nnb560z1bwkHBEcQoxyW-57" value="Estoque" style="whiteSpace=wrap;html=1;align=center;" vertex="1" parent="1">
          <mxGeometry x="317.5" y="645" width="100" height="40" as="geometry" />
        </mxCell>
        <mxCell id="nnb560z1bwkHBEcQoxyW-75" value="Fornecido" style="shape=rhombus;perimeter=rhombusPerimeter;whiteSpace=wrap;html=1;align=center;" vertex="1" parent="1">
          <mxGeometry x="500" y="430" width="60" height="60" as="geometry" />
        </mxCell>
        <mxCell id="nnb560z1bwkHBEcQoxyW-76" value="Fornecedor" style="whiteSpace=wrap;html=1;align=center;" vertex="1" parent="1">
          <mxGeometry x="640" y="440" width="100" height="40" as="geometry" />
        </mxCell>
        <mxCell id="nnb560z1bwkHBEcQoxyW-77" value="" style="endArrow=none;html=1;rounded=0;entryX=0;entryY=0.5;entryDx=0;entryDy=0;" edge="1" parent="1" target="nnb560z1bwkHBEcQoxyW-75">
          <mxGeometry relative="1" as="geometry">
            <mxPoint x="420" y="459.66" as="sourcePoint" />
            <mxPoint x="580" y="459.66" as="targetPoint" />
          </mxGeometry>
        </mxCell>
        <mxCell id="nnb560z1bwkHBEcQoxyW-78" value="" style="endArrow=none;html=1;rounded=0;entryX=0;entryY=0.5;entryDx=0;entryDy=0;exitX=1;exitY=0.5;exitDx=0;exitDy=0;" edge="1" parent="1" source="nnb560z1bwkHBEcQoxyW-75" target="nnb560z1bwkHBEcQoxyW-76">
          <mxGeometry relative="1" as="geometry">
            <mxPoint x="500" y="380" as="sourcePoint" />
            <mxPoint x="600" y="380.34000000000003" as="targetPoint" />
          </mxGeometry>
        </mxCell>
        <mxCell id="nnb560z1bwkHBEcQoxyW-79" value="" style="endArrow=none;html=1;rounded=0;" edge="1" parent="1">
          <mxGeometry relative="1" as="geometry">
            <mxPoint x="420" y="259.65999999999997" as="sourcePoint" />
            <mxPoint x="520" y="260" as="targetPoint" />
          </mxGeometry>
        </mxCell>
        <mxCell id="nnb560z1bwkHBEcQoxyW-81" value="Pago" style="shape=rhombus;perimeter=rhombusPerimeter;whiteSpace=wrap;html=1;align=center;" vertex="1" parent="1">
          <mxGeometry x="500" y="230" width="60" height="60" as="geometry" />
        </mxCell>
        <mxCell id="nnb560z1bwkHBEcQoxyW-82" value="Pagamento" style="whiteSpace=wrap;html=1;align=center;" vertex="1" parent="1">
          <mxGeometry x="640" y="240" width="100" height="40" as="geometry" />
        </mxCell>
        <mxCell id="nnb560z1bwkHBEcQoxyW-83" value="" style="endArrow=none;html=1;rounded=0;entryX=0;entryY=0.5;entryDx=0;entryDy=0;exitX=1;exitY=0.5;exitDx=0;exitDy=0;" edge="1" parent="1" source="nnb560z1bwkHBEcQoxyW-81" target="nnb560z1bwkHBEcQoxyW-82">
          <mxGeometry relative="1" as="geometry">
            <mxPoint x="555" y="230" as="sourcePoint" />
            <mxPoint x="715" y="230" as="targetPoint" />
          </mxGeometry>
        </mxCell>
        <mxCell id="nnb560z1bwkHBEcQoxyW-84" value="Transporta" style="shape=rhombus;perimeter=rhombusPerimeter;whiteSpace=wrap;html=1;align=center;" vertex="1" parent="1">
          <mxGeometry x="190" y="230" width="60" height="60" as="geometry" />
        </mxCell>
        <mxCell id="nnb560z1bwkHBEcQoxyW-85" value="Endereço" style="whiteSpace=wrap;html=1;align=center;" vertex="1" parent="1">
          <mxGeometry x="10" y="240" width="100" height="40" as="geometry" />
        </mxCell>
        <mxCell id="nnb560z1bwkHBEcQoxyW-86" value="" style="endArrow=none;html=1;rounded=0;entryX=0;entryY=0.5;entryDx=0;entryDy=0;exitX=1;exitY=0.5;exitDx=0;exitDy=0;" edge="1" parent="1" source="nnb560z1bwkHBEcQoxyW-85" target="nnb560z1bwkHBEcQoxyW-84">
          <mxGeometry relative="1" as="geometry">
            <mxPoint x="130" y="259.65999999999997" as="sourcePoint" />
            <mxPoint x="290" y="259.65999999999997" as="targetPoint" />
          </mxGeometry>
        </mxCell>
        <mxCell id="nnb560z1bwkHBEcQoxyW-87" value="" style="endArrow=none;html=1;rounded=0;entryX=0;entryY=0.5;entryDx=0;entryDy=0;exitX=1;exitY=0.5;exitDx=0;exitDy=0;" edge="1" parent="1" source="nnb560z1bwkHBEcQoxyW-84">
          <mxGeometry relative="1" as="geometry">
            <mxPoint x="260" y="259.65999999999997" as="sourcePoint" />
            <mxPoint x="320" y="260" as="targetPoint" />
          </mxGeometry>
        </mxCell>
        <mxCell id="nnb560z1bwkHBEcQoxyW-88" value="Pertence" style="shape=rhombus;perimeter=rhombusPerimeter;whiteSpace=wrap;html=1;align=center;" vertex="1" parent="1">
          <mxGeometry x="190" y="430" width="60" height="60" as="geometry" />
        </mxCell>
        <mxCell id="nnb560z1bwkHBEcQoxyW-89" value="Categoria" style="whiteSpace=wrap;html=1;align=center;" vertex="1" parent="1">
          <mxGeometry x="10" y="440" width="100" height="40" as="geometry" />
        </mxCell>
        <mxCell id="nnb560z1bwkHBEcQoxyW-90" value="" style="endArrow=none;html=1;rounded=0;entryX=0;entryY=0.5;entryDx=0;entryDy=0;exitX=1;exitY=0.5;exitDx=0;exitDy=0;" edge="1" parent="1" source="nnb560z1bwkHBEcQoxyW-89" target="nnb560z1bwkHBEcQoxyW-88">
          <mxGeometry relative="1" as="geometry">
            <mxPoint x="210" y="480" as="sourcePoint" />
            <mxPoint x="370" y="480" as="targetPoint" />
          </mxGeometry>
        </mxCell>
        <mxCell id="nnb560z1bwkHBEcQoxyW-91" value="" style="endArrow=none;html=1;rounded=0;entryX=0;entryY=0.5;entryDx=0;entryDy=0;exitX=1;exitY=0.5;exitDx=0;exitDy=0;" edge="1" parent="1" source="nnb560z1bwkHBEcQoxyW-88" target="nnb560z1bwkHBEcQoxyW-27">
          <mxGeometry relative="1" as="geometry">
            <mxPoint x="310" y="500" as="sourcePoint" />
            <mxPoint x="348" y="535" as="targetPoint" />
          </mxGeometry>
        </mxCell>
        <mxCell id="nnb560z1bwkHBEcQoxyW-96" value="Registro" style="shape=rhombus;perimeter=rhombusPerimeter;whiteSpace=wrap;html=1;align=center;" vertex="1" parent="1">
          <mxGeometry x="337.5" y="530" width="60" height="60" as="geometry" />
        </mxCell>
        <mxCell id="nnb560z1bwkHBEcQoxyW-97" value="" style="endArrow=none;html=1;rounded=0;entryX=0.5;entryY=0;entryDx=0;entryDy=0;exitX=0.5;exitY=1;exitDx=0;exitDy=0;" edge="1" parent="1" source="nnb560z1bwkHBEcQoxyW-96" target="nnb560z1bwkHBEcQoxyW-57">
          <mxGeometry relative="1" as="geometry">
            <mxPoint x="370" y="590" as="sourcePoint" />
            <mxPoint x="530" y="590" as="targetPoint" />
          </mxGeometry>
        </mxCell>
        <mxCell id="nnb560z1bwkHBEcQoxyW-98" value="É feito" style="shape=rhombus;perimeter=rhombusPerimeter;whiteSpace=wrap;html=1;align=center;" vertex="1" parent="1">
          <mxGeometry x="510" y="140" width="60" height="60" as="geometry" />
        </mxCell>
        <mxCell id="nnb560z1bwkHBEcQoxyW-99" value="" style="endArrow=none;html=1;rounded=0;entryX=0;entryY=1;entryDx=0;entryDy=0;exitX=1;exitY=0;exitDx=0;exitDy=0;" edge="1" parent="1" source="nnb560z1bwkHBEcQoxyW-23" target="nnb560z1bwkHBEcQoxyW-98">
          <mxGeometry relative="1" as="geometry">
            <mxPoint x="420" y="280" as="sourcePoint" />
            <mxPoint x="580" y="280" as="targetPoint" />
          </mxGeometry>
        </mxCell>
        <mxCell id="nnb560z1bwkHBEcQoxyW-100" value="Funciomário" style="whiteSpace=wrap;html=1;align=center;" vertex="1" parent="1">
          <mxGeometry x="490" y="60" width="100" height="40" as="geometry" />
        </mxCell>
        <mxCell id="nnb560z1bwkHBEcQoxyW-101" value="" style="endArrow=none;html=1;rounded=0;exitX=0.5;exitY=0;exitDx=0;exitDy=0;entryX=0.5;entryY=1;entryDx=0;entryDy=0;" edge="1" parent="1" source="nnb560z1bwkHBEcQoxyW-98" target="nnb560z1bwkHBEcQoxyW-100">
          <mxGeometry relative="1" as="geometry">
            <mxPoint x="480" y="340" as="sourcePoint" />
            <mxPoint x="510" y="370" as="targetPoint" />
          </mxGeometry>
        </mxCell>
        <mxCell id="nnb560z1bwkHBEcQoxyW-102" value="" style="endArrow=none;html=1;rounded=0;exitX=0.5;exitY=0;exitDx=0;exitDy=0;entryX=0.5;entryY=1;entryDx=0;entryDy=0;" edge="1" parent="1" source="nnb560z1bwkHBEcQoxyW-100" target="nnb560z1bwkHBEcQoxyW-103">
          <mxGeometry relative="1" as="geometry">
            <mxPoint x="590" y="79.66" as="sourcePoint" />
            <mxPoint x="690" y="80" as="targetPoint" />
          </mxGeometry>
        </mxCell>
        <mxCell id="nnb560z1bwkHBEcQoxyW-103" value="Trabalha" style="shape=rhombus;perimeter=rhombusPerimeter;whiteSpace=wrap;html=1;align=center;" vertex="1" parent="1">
          <mxGeometry x="510" y="-50" width="60" height="60" as="geometry" />
        </mxCell>
        <mxCell id="nnb560z1bwkHBEcQoxyW-104" value="" style="endArrow=none;html=1;rounded=0;exitX=0.5;exitY=0;exitDx=0;exitDy=0;entryX=0.5;entryY=1;entryDx=0;entryDy=0;" edge="1" parent="1" source="nnb560z1bwkHBEcQoxyW-103" target="nnb560z1bwkHBEcQoxyW-105">
          <mxGeometry relative="1" as="geometry">
            <mxPoint x="710" y="110" as="sourcePoint" />
            <mxPoint x="710" y="140" as="targetPoint" />
          </mxGeometry>
        </mxCell>
        <mxCell id="nnb560z1bwkHBEcQoxyW-105" value="Departamento" style="whiteSpace=wrap;html=1;align=center;" vertex="1" parent="1">
          <mxGeometry x="489.9999999999998" y="-150" width="100" height="40" as="geometry" />
        </mxCell>
        <mxCell id="nnb560z1bwkHBEcQoxyW-141" value="Cliente" style="swimlane;fontStyle=0;childLayout=stackLayout;horizontal=1;startSize=26;horizontalStack=0;resizeParent=1;resizeParentMax=0;resizeLast=0;collapsible=1;marginBottom=0;align=center;fontSize=14;" vertex="1" parent="1">
          <mxGeometry x="134" y="-1120" width="160" height="116" as="geometry" />
        </mxCell>
        <mxCell id="nnb560z1bwkHBEcQoxyW-142" value="ID" style="text;strokeColor=none;fillColor=none;spacingLeft=4;spacingRight=4;overflow=hidden;rotatable=0;points=[[0,0.5],[1,0.5]];portConstraint=eastwest;fontSize=12;whiteSpace=wrap;html=1;" vertex="1" parent="nnb560z1bwkHBEcQoxyW-141">
          <mxGeometry y="26" width="160" height="30" as="geometry" />
        </mxCell>
        <mxCell id="nnb560z1bwkHBEcQoxyW-143" value="Nome" style="text;strokeColor=none;fillColor=none;spacingLeft=4;spacingRight=4;overflow=hidden;rotatable=0;points=[[0,0.5],[1,0.5]];portConstraint=eastwest;fontSize=12;whiteSpace=wrap;html=1;" vertex="1" parent="nnb560z1bwkHBEcQoxyW-141">
          <mxGeometry y="56" width="160" height="30" as="geometry" />
        </mxCell>
        <mxCell id="nnb560z1bwkHBEcQoxyW-144" value="Endereço" style="text;strokeColor=none;fillColor=none;spacingLeft=4;spacingRight=4;overflow=hidden;rotatable=0;points=[[0,0.5],[1,0.5]];portConstraint=eastwest;fontSize=12;whiteSpace=wrap;html=1;" vertex="1" parent="nnb560z1bwkHBEcQoxyW-141">
          <mxGeometry y="86" width="160" height="30" as="geometry" />
        </mxCell>
        <mxCell id="nnb560z1bwkHBEcQoxyW-147" value="Produto" style="swimlane;fontStyle=0;childLayout=stackLayout;horizontal=1;startSize=26;horizontalStack=0;resizeParent=1;resizeParentMax=0;resizeLast=0;collapsible=1;marginBottom=0;align=center;fontSize=14;" vertex="1" parent="1">
          <mxGeometry x="334" y="-1120" width="160" height="116" as="geometry" />
        </mxCell>
        <mxCell id="nnb560z1bwkHBEcQoxyW-148" value="ID" style="text;strokeColor=none;fillColor=none;spacingLeft=4;spacingRight=4;overflow=hidden;rotatable=0;points=[[0,0.5],[1,0.5]];portConstraint=eastwest;fontSize=12;whiteSpace=wrap;html=1;" vertex="1" parent="nnb560z1bwkHBEcQoxyW-147">
          <mxGeometry y="26" width="160" height="30" as="geometry" />
        </mxCell>
        <mxCell id="nnb560z1bwkHBEcQoxyW-149" value="Nome" style="text;strokeColor=none;fillColor=none;spacingLeft=4;spacingRight=4;overflow=hidden;rotatable=0;points=[[0,0.5],[1,0.5]];portConstraint=eastwest;fontSize=12;whiteSpace=wrap;html=1;" vertex="1" parent="nnb560z1bwkHBEcQoxyW-147">
          <mxGeometry y="56" width="160" height="30" as="geometry" />
        </mxCell>
        <mxCell id="nnb560z1bwkHBEcQoxyW-150" value="Preço" style="text;strokeColor=none;fillColor=none;spacingLeft=4;spacingRight=4;overflow=hidden;rotatable=0;points=[[0,0.5],[1,0.5]];portConstraint=eastwest;fontSize=12;whiteSpace=wrap;html=1;" vertex="1" parent="nnb560z1bwkHBEcQoxyW-147">
          <mxGeometry y="86" width="160" height="30" as="geometry" />
        </mxCell>
        <mxCell id="nnb560z1bwkHBEcQoxyW-152" value="Pedido" style="swimlane;fontStyle=0;childLayout=stackLayout;horizontal=1;startSize=26;horizontalStack=0;resizeParent=1;resizeParentMax=0;resizeLast=0;collapsible=1;marginBottom=0;align=center;fontSize=14;" vertex="1" parent="1">
          <mxGeometry x="534" y="-1120" width="160" height="116" as="geometry" />
        </mxCell>
        <mxCell id="nnb560z1bwkHBEcQoxyW-153" value="ID" style="text;strokeColor=none;fillColor=none;spacingLeft=4;spacingRight=4;overflow=hidden;rotatable=0;points=[[0,0.5],[1,0.5]];portConstraint=eastwest;fontSize=12;whiteSpace=wrap;html=1;" vertex="1" parent="nnb560z1bwkHBEcQoxyW-152">
          <mxGeometry y="26" width="160" height="30" as="geometry" />
        </mxCell>
        <mxCell id="nnb560z1bwkHBEcQoxyW-154" value="Data&amp;nbsp;" style="text;strokeColor=none;fillColor=none;spacingLeft=4;spacingRight=4;overflow=hidden;rotatable=0;points=[[0,0.5],[1,0.5]];portConstraint=eastwest;fontSize=12;whiteSpace=wrap;html=1;" vertex="1" parent="nnb560z1bwkHBEcQoxyW-152">
          <mxGeometry y="56" width="160" height="30" as="geometry" />
        </mxCell>
        <mxCell id="nnb560z1bwkHBEcQoxyW-155" value="Status" style="text;strokeColor=none;fillColor=none;spacingLeft=4;spacingRight=4;overflow=hidden;rotatable=0;points=[[0,0.5],[1,0.5]];portConstraint=eastwest;fontSize=12;whiteSpace=wrap;html=1;" vertex="1" parent="nnb560z1bwkHBEcQoxyW-152">
          <mxGeometry y="86" width="160" height="30" as="geometry" />
        </mxCell>
        <mxCell id="nnb560z1bwkHBEcQoxyW-156" value="Fornecedor" style="swimlane;fontStyle=0;childLayout=stackLayout;horizontal=1;startSize=26;horizontalStack=0;resizeParent=1;resizeParentMax=0;resizeLast=0;collapsible=1;marginBottom=0;align=center;fontSize=14;" vertex="1" parent="1">
          <mxGeometry x="134" y="-960" width="160" height="116" as="geometry" />
        </mxCell>
        <mxCell id="nnb560z1bwkHBEcQoxyW-157" value="ID" style="text;strokeColor=none;fillColor=none;spacingLeft=4;spacingRight=4;overflow=hidden;rotatable=0;points=[[0,0.5],[1,0.5]];portConstraint=eastwest;fontSize=12;whiteSpace=wrap;html=1;" vertex="1" parent="nnb560z1bwkHBEcQoxyW-156">
          <mxGeometry y="26" width="160" height="30" as="geometry" />
        </mxCell>
        <mxCell id="nnb560z1bwkHBEcQoxyW-158" value="Nome" style="text;strokeColor=none;fillColor=none;spacingLeft=4;spacingRight=4;overflow=hidden;rotatable=0;points=[[0,0.5],[1,0.5]];portConstraint=eastwest;fontSize=12;whiteSpace=wrap;html=1;" vertex="1" parent="nnb560z1bwkHBEcQoxyW-156">
          <mxGeometry y="56" width="160" height="30" as="geometry" />
        </mxCell>
        <mxCell id="nnb560z1bwkHBEcQoxyW-159" value="Telefone" style="text;strokeColor=none;fillColor=none;spacingLeft=4;spacingRight=4;overflow=hidden;rotatable=0;points=[[0,0.5],[1,0.5]];portConstraint=eastwest;fontSize=12;whiteSpace=wrap;html=1;" vertex="1" parent="nnb560z1bwkHBEcQoxyW-156">
          <mxGeometry y="86" width="160" height="30" as="geometry" />
        </mxCell>
        <mxCell id="nnb560z1bwkHBEcQoxyW-160" value="Funcionário" style="swimlane;fontStyle=0;childLayout=stackLayout;horizontal=1;startSize=26;horizontalStack=0;resizeParent=1;resizeParentMax=0;resizeLast=0;collapsible=1;marginBottom=0;align=center;fontSize=14;" vertex="1" parent="1">
          <mxGeometry x="334" y="-960" width="160" height="116" as="geometry" />
        </mxCell>
        <mxCell id="nnb560z1bwkHBEcQoxyW-161" value="ID" style="text;strokeColor=none;fillColor=none;spacingLeft=4;spacingRight=4;overflow=hidden;rotatable=0;points=[[0,0.5],[1,0.5]];portConstraint=eastwest;fontSize=12;whiteSpace=wrap;html=1;" vertex="1" parent="nnb560z1bwkHBEcQoxyW-160">
          <mxGeometry y="26" width="160" height="30" as="geometry" />
        </mxCell>
        <mxCell id="nnb560z1bwkHBEcQoxyW-162" value="Nome" style="text;strokeColor=none;fillColor=none;spacingLeft=4;spacingRight=4;overflow=hidden;rotatable=0;points=[[0,0.5],[1,0.5]];portConstraint=eastwest;fontSize=12;whiteSpace=wrap;html=1;" vertex="1" parent="nnb560z1bwkHBEcQoxyW-160">
          <mxGeometry y="56" width="160" height="30" as="geometry" />
        </mxCell>
        <mxCell id="nnb560z1bwkHBEcQoxyW-163" value="Telefone" style="text;strokeColor=none;fillColor=none;spacingLeft=4;spacingRight=4;overflow=hidden;rotatable=0;points=[[0,0.5],[1,0.5]];portConstraint=eastwest;fontSize=12;whiteSpace=wrap;html=1;" vertex="1" parent="nnb560z1bwkHBEcQoxyW-160">
          <mxGeometry y="86" width="160" height="30" as="geometry" />
        </mxCell>
        <mxCell id="nnb560z1bwkHBEcQoxyW-164" value="Departamento" style="swimlane;fontStyle=0;childLayout=stackLayout;horizontal=1;startSize=26;horizontalStack=0;resizeParent=1;resizeParentMax=0;resizeLast=0;collapsible=1;marginBottom=0;align=center;fontSize=14;" vertex="1" parent="1">
          <mxGeometry x="534" y="-960" width="160" height="116" as="geometry" />
        </mxCell>
        <mxCell id="nnb560z1bwkHBEcQoxyW-165" value="ID" style="text;strokeColor=none;fillColor=none;spacingLeft=4;spacingRight=4;overflow=hidden;rotatable=0;points=[[0,0.5],[1,0.5]];portConstraint=eastwest;fontSize=12;whiteSpace=wrap;html=1;" vertex="1" parent="nnb560z1bwkHBEcQoxyW-164">
          <mxGeometry y="26" width="160" height="30" as="geometry" />
        </mxCell>
        <mxCell id="nnb560z1bwkHBEcQoxyW-166" value="Nome" style="text;strokeColor=none;fillColor=none;spacingLeft=4;spacingRight=4;overflow=hidden;rotatable=0;points=[[0,0.5],[1,0.5]];portConstraint=eastwest;fontSize=12;whiteSpace=wrap;html=1;" vertex="1" parent="nnb560z1bwkHBEcQoxyW-164">
          <mxGeometry y="56" width="160" height="30" as="geometry" />
        </mxCell>
        <mxCell id="nnb560z1bwkHBEcQoxyW-167" value="Localização" style="text;strokeColor=none;fillColor=none;spacingLeft=4;spacingRight=4;overflow=hidden;rotatable=0;points=[[0,0.5],[1,0.5]];portConstraint=eastwest;fontSize=12;whiteSpace=wrap;html=1;" vertex="1" parent="nnb560z1bwkHBEcQoxyW-164">
          <mxGeometry y="86" width="160" height="30" as="geometry" />
        </mxCell>
        <mxCell id="nnb560z1bwkHBEcQoxyW-168" value="Pagamento" style="swimlane;fontStyle=0;childLayout=stackLayout;horizontal=1;startSize=26;horizontalStack=0;resizeParent=1;resizeParentMax=0;resizeLast=0;collapsible=1;marginBottom=0;align=center;fontSize=14;" vertex="1" parent="1">
          <mxGeometry x="40" y="-800" width="160" height="116" as="geometry" />
        </mxCell>
        <mxCell id="nnb560z1bwkHBEcQoxyW-169" value="ID" style="text;strokeColor=none;fillColor=none;spacingLeft=4;spacingRight=4;overflow=hidden;rotatable=0;points=[[0,0.5],[1,0.5]];portConstraint=eastwest;fontSize=12;whiteSpace=wrap;html=1;" vertex="1" parent="nnb560z1bwkHBEcQoxyW-168">
          <mxGeometry y="26" width="160" height="30" as="geometry" />
        </mxCell>
        <mxCell id="nnb560z1bwkHBEcQoxyW-170" value="Data" style="text;strokeColor=none;fillColor=none;spacingLeft=4;spacingRight=4;overflow=hidden;rotatable=0;points=[[0,0.5],[1,0.5]];portConstraint=eastwest;fontSize=12;whiteSpace=wrap;html=1;" vertex="1" parent="nnb560z1bwkHBEcQoxyW-168">
          <mxGeometry y="56" width="160" height="30" as="geometry" />
        </mxCell>
        <mxCell id="nnb560z1bwkHBEcQoxyW-171" value="Valor" style="text;strokeColor=none;fillColor=none;spacingLeft=4;spacingRight=4;overflow=hidden;rotatable=0;points=[[0,0.5],[1,0.5]];portConstraint=eastwest;fontSize=12;whiteSpace=wrap;html=1;" vertex="1" parent="nnb560z1bwkHBEcQoxyW-168">
          <mxGeometry y="86" width="160" height="30" as="geometry" />
        </mxCell>
        <mxCell id="nnb560z1bwkHBEcQoxyW-172" value="Entrega" style="swimlane;fontStyle=0;childLayout=stackLayout;horizontal=1;startSize=26;horizontalStack=0;resizeParent=1;resizeParentMax=0;resizeLast=0;collapsible=1;marginBottom=0;align=center;fontSize=14;" vertex="1" parent="1">
          <mxGeometry x="240" y="-800" width="160" height="116" as="geometry" />
        </mxCell>
        <mxCell id="nnb560z1bwkHBEcQoxyW-173" value="ID" style="text;strokeColor=none;fillColor=none;spacingLeft=4;spacingRight=4;overflow=hidden;rotatable=0;points=[[0,0.5],[1,0.5]];portConstraint=eastwest;fontSize=12;whiteSpace=wrap;html=1;" vertex="1" parent="nnb560z1bwkHBEcQoxyW-172">
          <mxGeometry y="26" width="160" height="30" as="geometry" />
        </mxCell>
        <mxCell id="nnb560z1bwkHBEcQoxyW-174" value="Data" style="text;strokeColor=none;fillColor=none;spacingLeft=4;spacingRight=4;overflow=hidden;rotatable=0;points=[[0,0.5],[1,0.5]];portConstraint=eastwest;fontSize=12;whiteSpace=wrap;html=1;" vertex="1" parent="nnb560z1bwkHBEcQoxyW-172">
          <mxGeometry y="56" width="160" height="30" as="geometry" />
        </mxCell>
        <mxCell id="nnb560z1bwkHBEcQoxyW-175" value="Observações" style="text;strokeColor=none;fillColor=none;spacingLeft=4;spacingRight=4;overflow=hidden;rotatable=0;points=[[0,0.5],[1,0.5]];portConstraint=eastwest;fontSize=12;whiteSpace=wrap;html=1;" vertex="1" parent="nnb560z1bwkHBEcQoxyW-172">
          <mxGeometry y="86" width="160" height="30" as="geometry" />
        </mxCell>
        <mxCell id="nnb560z1bwkHBEcQoxyW-176" value="Categoria" style="swimlane;fontStyle=0;childLayout=stackLayout;horizontal=1;startSize=26;horizontalStack=0;resizeParent=1;resizeParentMax=0;resizeLast=0;collapsible=1;marginBottom=0;align=center;fontSize=14;" vertex="1" parent="1">
          <mxGeometry x="440" y="-800" width="160" height="116" as="geometry" />
        </mxCell>
        <mxCell id="nnb560z1bwkHBEcQoxyW-177" value="ID" style="text;strokeColor=none;fillColor=none;spacingLeft=4;spacingRight=4;overflow=hidden;rotatable=0;points=[[0,0.5],[1,0.5]];portConstraint=eastwest;fontSize=12;whiteSpace=wrap;html=1;" vertex="1" parent="nnb560z1bwkHBEcQoxyW-176">
          <mxGeometry y="26" width="160" height="30" as="geometry" />
        </mxCell>
        <mxCell id="nnb560z1bwkHBEcQoxyW-178" value="Nome" style="text;strokeColor=none;fillColor=none;spacingLeft=4;spacingRight=4;overflow=hidden;rotatable=0;points=[[0,0.5],[1,0.5]];portConstraint=eastwest;fontSize=12;whiteSpace=wrap;html=1;" vertex="1" parent="nnb560z1bwkHBEcQoxyW-176">
          <mxGeometry y="56" width="160" height="30" as="geometry" />
        </mxCell>
        <mxCell id="nnb560z1bwkHBEcQoxyW-179" value="Descrição" style="text;strokeColor=none;fillColor=none;spacingLeft=4;spacingRight=4;overflow=hidden;rotatable=0;points=[[0,0.5],[1,0.5]];portConstraint=eastwest;fontSize=12;whiteSpace=wrap;html=1;" vertex="1" parent="nnb560z1bwkHBEcQoxyW-176">
          <mxGeometry y="86" width="160" height="30" as="geometry" />
        </mxCell>
        <mxCell id="nnb560z1bwkHBEcQoxyW-180" value="Estoque" style="swimlane;fontStyle=0;childLayout=stackLayout;horizontal=1;startSize=26;horizontalStack=0;resizeParent=1;resizeParentMax=0;resizeLast=0;collapsible=1;marginBottom=0;align=center;fontSize=14;" vertex="1" parent="1">
          <mxGeometry x="640" y="-800" width="160" height="116" as="geometry" />
        </mxCell>
        <mxCell id="nnb560z1bwkHBEcQoxyW-181" value="ID" style="text;strokeColor=none;fillColor=none;spacingLeft=4;spacingRight=4;overflow=hidden;rotatable=0;points=[[0,0.5],[1,0.5]];portConstraint=eastwest;fontSize=12;whiteSpace=wrap;html=1;" vertex="1" parent="nnb560z1bwkHBEcQoxyW-180">
          <mxGeometry y="26" width="160" height="30" as="geometry" />
        </mxCell>
        <mxCell id="nnb560z1bwkHBEcQoxyW-182" value="Nome" style="text;strokeColor=none;fillColor=none;spacingLeft=4;spacingRight=4;overflow=hidden;rotatable=0;points=[[0,0.5],[1,0.5]];portConstraint=eastwest;fontSize=12;whiteSpace=wrap;html=1;" vertex="1" parent="nnb560z1bwkHBEcQoxyW-180">
          <mxGeometry y="56" width="160" height="30" as="geometry" />
        </mxCell>
        <mxCell id="nnb560z1bwkHBEcQoxyW-183" value="Quantidade" style="text;strokeColor=none;fillColor=none;spacingLeft=4;spacingRight=4;overflow=hidden;rotatable=0;points=[[0,0.5],[1,0.5]];portConstraint=eastwest;fontSize=12;whiteSpace=wrap;html=1;" vertex="1" parent="nnb560z1bwkHBEcQoxyW-180">
          <mxGeometry y="86" width="160" height="30" as="geometry" />
        </mxCell>
        <mxCell id="nnb560z1bwkHBEcQoxyW-184" value="(1,n)" style="text;html=1;align=center;verticalAlign=middle;resizable=0;points=[];autosize=1;strokeColor=none;fillColor=none;" vertex="1" parent="1">
          <mxGeometry x="330" y="110" width="50" height="30" as="geometry" />
        </mxCell>
        <mxCell id="nnb560z1bwkHBEcQoxyW-185" value="(1,1)" style="text;html=1;align=center;verticalAlign=middle;resizable=0;points=[];autosize=1;strokeColor=none;fillColor=none;" vertex="1" parent="1">
          <mxGeometry x="260" y="235" width="50" height="30" as="geometry" />
        </mxCell>
        <mxCell id="nnb560z1bwkHBEcQoxyW-186" value="(1,n)" style="text;html=1;align=center;verticalAlign=middle;resizable=0;points=[];autosize=1;strokeColor=none;fillColor=none;" vertex="1" parent="1">
          <mxGeometry x="534" y="105" width="50" height="30" as="geometry" />
        </mxCell>
        <mxCell id="nnb560z1bwkHBEcQoxyW-188" value="(1,n)" style="text;html=1;align=center;verticalAlign=middle;resizable=0;points=[];autosize=1;strokeColor=none;fillColor=none;" vertex="1" parent="1">
          <mxGeometry x="330" y="200" width="50" height="30" as="geometry" />
        </mxCell>
        <mxCell id="nnb560z1bwkHBEcQoxyW-189" value="(1,n)" style="text;html=1;align=center;verticalAlign=middle;resizable=0;points=[];autosize=1;strokeColor=none;fillColor=none;" vertex="1" parent="1">
          <mxGeometry x="434" y="190" width="50" height="30" as="geometry" />
        </mxCell>
        <mxCell id="nnb560z1bwkHBEcQoxyW-190" value="(1,1)" style="text;html=1;align=center;verticalAlign=middle;resizable=0;points=[];autosize=1;strokeColor=none;fillColor=none;" vertex="1" parent="1">
          <mxGeometry x="534" y="10" width="50" height="30" as="geometry" />
        </mxCell>
        <mxCell id="nnb560z1bwkHBEcQoxyW-191" value="(1,n)" style="text;html=1;align=center;verticalAlign=middle;resizable=0;points=[];autosize=1;strokeColor=none;fillColor=none;" vertex="1" parent="1">
          <mxGeometry x="534" y="-90" width="50" height="30" as="geometry" />
        </mxCell>
        <mxCell id="nnb560z1bwkHBEcQoxyW-194" value="(1,n)" style="text;html=1;align=center;verticalAlign=middle;resizable=0;points=[];autosize=1;strokeColor=none;fillColor=none;" vertex="1" parent="1">
          <mxGeometry x="115" y="235" width="50" height="30" as="geometry" />
        </mxCell>
        <mxCell id="nnb560z1bwkHBEcQoxyW-195" value="(1,1)" style="text;html=1;align=center;verticalAlign=middle;resizable=0;points=[];autosize=1;strokeColor=none;fillColor=none;" vertex="1" parent="1">
          <mxGeometry x="435" y="235" width="50" height="30" as="geometry" />
        </mxCell>
        <mxCell id="nnb560z1bwkHBEcQoxyW-196" value="(1,n)" style="text;html=1;align=center;verticalAlign=middle;resizable=0;points=[];autosize=1;strokeColor=none;fillColor=none;" vertex="1" parent="1">
          <mxGeometry x="570" y="235" width="50" height="30" as="geometry" />
        </mxCell>
        <mxCell id="nnb560z1bwkHBEcQoxyW-197" value="(1,n)" style="text;html=1;align=center;verticalAlign=middle;resizable=0;points=[];autosize=1;strokeColor=none;fillColor=none;" vertex="1" parent="1">
          <mxGeometry x="364" y="290" width="50" height="30" as="geometry" />
        </mxCell>
        <mxCell id="nnb560z1bwkHBEcQoxyW-198" value="(1,n)" style="text;html=1;align=center;verticalAlign=middle;resizable=0;points=[];autosize=1;strokeColor=none;fillColor=none;" vertex="1" parent="1">
          <mxGeometry x="365" y="395" width="50" height="30" as="geometry" />
        </mxCell>
        <mxCell id="nnb560z1bwkHBEcQoxyW-199" value="(1,1)" style="text;html=1;align=center;verticalAlign=middle;resizable=0;points=[];autosize=1;strokeColor=none;fillColor=none;" vertex="1" parent="1">
          <mxGeometry x="260" y="435" width="50" height="30" as="geometry" />
        </mxCell>
        <mxCell id="nnb560z1bwkHBEcQoxyW-200" value="(1,n)" style="text;html=1;align=center;verticalAlign=middle;resizable=0;points=[];autosize=1;strokeColor=none;fillColor=none;" vertex="1" parent="1">
          <mxGeometry x="115" y="435" width="50" height="30" as="geometry" />
        </mxCell>
        <mxCell id="nnb560z1bwkHBEcQoxyW-201" value="(1,1)" style="text;html=1;align=center;verticalAlign=middle;resizable=0;points=[];autosize=1;strokeColor=none;fillColor=none;" vertex="1" parent="1">
          <mxGeometry x="435" y="435" width="50" height="30" as="geometry" />
        </mxCell>
        <mxCell id="nnb560z1bwkHBEcQoxyW-202" value="(1,n)" style="text;html=1;align=center;verticalAlign=middle;resizable=0;points=[];autosize=1;strokeColor=none;fillColor=none;" vertex="1" parent="1">
          <mxGeometry x="570" y="435" width="50" height="30" as="geometry" />
        </mxCell>
        <mxCell id="nnb560z1bwkHBEcQoxyW-203" value="(1,1)" style="text;html=1;align=center;verticalAlign=middle;resizable=0;points=[];autosize=1;strokeColor=none;fillColor=none;" vertex="1" parent="1">
          <mxGeometry x="360" y="490" width="50" height="30" as="geometry" />
        </mxCell>
        <mxCell id="nnb560z1bwkHBEcQoxyW-204" value="(1,n)" style="text;html=1;align=center;verticalAlign=middle;resizable=0;points=[];autosize=1;strokeColor=none;fillColor=none;" vertex="1" parent="1">
          <mxGeometry x="360" y="600" width="50" height="30" as="geometry" />
        </mxCell>
      </root>
    </mxGraphModel>
  </diagram>
</mxfile>
